<svg width="66" height="37" viewBox="0 0 66 37" fill="none" xmlns="http://www.w3.org/2000/svg">
<path d="M7.03643 2.2987H2.78916V34.8428H7.03643V36.7366H0.674711V0.404895H7.03643V2.2987ZM59.2908 0.404895H65.6525V36.7366H59.2908V34.8428H63.5381V2.2987H59.2908V0.404895Z" fill="white"/>
<path d="M41.4786 6.74756C41.3392 5.93094 40.5642 5.38197 39.7476 5.5214L26.4401 7.7934C25.6235 7.93282 25.0745 8.70784 25.214 9.52445C25.3534 10.3411 26.1284 10.89 26.945 10.7506L38.7738 8.73105L40.7934 20.5599C40.9328 21.3765 41.7078 21.9255 42.5244 21.786C43.3411 21.6466 43.89 20.8716 43.7506 20.055L41.4786 6.74756ZM23 31L24.224 31.867L41.224 7.86703L40 7L38.776 6.13297L21.776 30.133L23 31Z" fill="white"/>
</svg>
